<svg version="1.0" xmlns="http://www.w3.org/2000/svg" width="933.333" height="933.333" viewBox="0 0 700 700"><path d="M263.3 1.8c-9.9 3.5-17 10-21.6 19.9-2 4.4-2.2 6.3-2.2 23V63l3.3 3.2 3.2 3.3 20 .3 20 .3v69.8l-20 .3-20 .3-3.2 3.3-3.3 3.2-.3 160-.2 160h-47v23h12.5c6.9 0 12.5.1 12.5.2 0 .2 5.1 45.9 11.3 101.6l11.3 101.3 3.2 3.2 3.2 3.2h173l3.1-3.2c3.2-3.1 3.2-3.4 5.3-21.7 1.2-10.2 2.6-18.9 3.1-19.5.6-.5 13.6-6.4 29-13.1 33.3-14.4 37.8-17.5 43.9-29.6 4.1-8.1 4.8-15.5 4.4-47.5-.3-28.4-.4-29.6-2.7-34.6-2.6-5.8-9.3-12.6-14.9-15.1-2.9-1.3-7.9-1.7-24.2-2l-20.6-.4 1.3-10.6c.6-5.9 1.2-11 1.3-11.5 0-.4 5.6-.7 12.5-.7H473v-23h-47l-.2-160-.3-160-3.3-3.2-3.2-3.3-20-.3-20-.3V70.1l20-.3 20-.3 3.2-3.3 3.3-3.2.3-15.6c.3-13.5.1-16.5-1.8-22.5-2.9-9.6-8.5-16.3-17.4-20.9L399.7.5 334.1.3c-61.1-.2-66-.1-70.8 1.5zm133.5 23.8c3.6 2.5 5.2 6.8 5.2 13.9V46H263v-6.5c0-3.9.6-7.8 1.5-9.5 3.3-6.3-.1-6 68-6 54.6 0 62.3.2 64.3 1.6zM355 105v35h-45V70h45v35zm-69.2 152.2l.2 93.7-4.2 1.1c-2.4.7-7.6 2.9-11.5 5l-7.3 3.9v-198l11.3.3 11.2.3.3 93.7zM402 262v98.9l-7.2-3.9c-4-2.1-9.2-4.3-11.5-5l-4.3-1.1v-93.3c0-51.3.3-93.6.7-93.9.3-.4 5.5-.7 11.5-.7H402v99zm21.6 232.2c-.6 4.6-13.6 121.7-13.6 123 0 .4-34.9.8-77.5.8-58.7 0-77.5-.3-77.5-1.2 0-1.7-12.9-118.7-13.6-123.1l-.6-3.7h183.4l-.6 4.2zm59.2 44c.9.9 1.2 9.1 1.2 30.5 0 32-.3 33.8-5.7 38.3-3.2 2.8-44 20.6-44.9 19.7-.5-.5 8-82.1 9.2-87.5.4-2.2.5-2.2 19.7-2.2 13.7 0 19.6.3 20.5 1.2z"/><path d="M327 514.7c-2.8 1.4-5.5 5.1-13.8 18.8-5.6 9.3-10.7 18.8-11.3 21-1.5 5.5-.6 18.2 1.6 22.5 3.4 6.7 8.4 11.8 14.7 14.9 5.3 2.7 7.2 3.1 14.3 3.1 7.1 0 9-.4 14.3-3.1 7.3-3.6 12.4-9.2 15.2-16.6 2.4-6.4 2.6-16.3.5-22.2-2.2-6.3-20.3-35.9-23-37.7-3.7-2.4-8.6-2.7-12.5-.7z"/></svg>